<mxfile host="Electron" modified="2023-11-10T16:10:51.931Z" agent="Mozilla/5.0 (Macintosh; Intel Mac OS X 10_15_7) AppleWebKit/537.36 (KHTML, like Gecko) draw.io/22.0.3 Chrome/114.0.5735.289 Electron/25.8.4 Safari/537.36" etag="tUPrjEpsH2wI6RHX4PwH" version="22.0.3" type="device">
  <diagram name="Page-1" id="38b20595-45e3-9b7f-d5ca-b57f44c5b66d">
    <mxGraphModel dx="1272" dy="1819" grid="0" gridSize="10" guides="1" tooltips="1" connect="1" arrows="1" fold="1" page="1" pageScale="1" pageWidth="1100" pageHeight="850" background="none" math="0" shadow="0">
      <root>
        <mxCell id="0" />
        <mxCell id="1" parent="0" />
        <mxCell id="ag_mGLsWCz3XFreDvWMs-2" value="" style="verticalLabelPosition=bottom;html=1;verticalAlign=top;align=center;shape=mxgraph.floorplan.wallCorner;fillColor=strokeColor;strokeColor=#0D0D0D;fontColor=#0D0D0D;" parent="1" vertex="1">
          <mxGeometry x="190" y="152" width="100" height="650" as="geometry" />
        </mxCell>
        <mxCell id="ag_mGLsWCz3XFreDvWMs-4" value="" style="verticalLabelPosition=bottom;html=1;verticalAlign=top;align=center;shape=mxgraph.floorplan.wallCorner;fillColor=strokeColor;direction=south;strokeColor=#0D0D0D;fontColor=#0D0D0D;" parent="1" vertex="1">
          <mxGeometry x="280" y="152" width="240" height="647" as="geometry" />
        </mxCell>
        <mxCell id="ag_mGLsWCz3XFreDvWMs-6" value="" style="verticalLabelPosition=bottom;html=1;verticalAlign=top;align=center;shape=mxgraph.floorplan.wallCorner;fillColor=strokeColor;direction=west;strokeColor=#0D0D0D;fontColor=#0D0D0D;" parent="1" vertex="1">
          <mxGeometry x="197" y="2" width="323" height="160" as="geometry" />
        </mxCell>
        <mxCell id="ag_mGLsWCz3XFreDvWMs-7" value="" style="verticalLabelPosition=bottom;html=1;verticalAlign=top;align=center;shape=mxgraph.floorplan.wallCorner;fillColor=strokeColor;direction=south;strokeColor=#0D0D0D;fontColor=#0D0D0D;" parent="1" vertex="1">
          <mxGeometry x="397" y="-128" width="123" height="61" as="geometry" />
        </mxCell>
        <mxCell id="ag_mGLsWCz3XFreDvWMs-8" value="" style="verticalLabelPosition=bottom;html=1;verticalAlign=top;align=center;shape=mxgraph.floorplan.wall;fillColor=strokeColor;direction=south;rotation=90;strokeColor=#0D0D0D;fontColor=#0D0D0D;" parent="1" vertex="1">
          <mxGeometry x="386.75" y="195.75" width="10" height="246.5" as="geometry" />
        </mxCell>
        <mxCell id="ag_mGLsWCz3XFreDvWMs-12" value="" style="verticalLabelPosition=bottom;html=1;verticalAlign=top;align=center;shape=mxgraph.floorplan.wall;fillColor=strokeColor;strokeColor=#0D0D0D;fontColor=#0D0D0D;" parent="1" vertex="1">
          <mxGeometry x="270" y="475" width="250" height="10" as="geometry" />
        </mxCell>
        <mxCell id="ag_mGLsWCz3XFreDvWMs-13" value="" style="verticalLabelPosition=bottom;html=1;verticalAlign=top;align=center;shape=mxgraph.floorplan.wall;fillColor=strokeColor;strokeColor=#0D0D0D;fontColor=#0D0D0D;" parent="1" vertex="1">
          <mxGeometry x="270" y="635" width="250" height="10" as="geometry" />
        </mxCell>
        <mxCell id="ag_mGLsWCz3XFreDvWMs-15" value="" style="verticalLabelPosition=bottom;html=1;verticalAlign=top;align=center;shape=mxgraph.floorplan.doorRight;aspect=fixed;rotation=-90;strokeColor=#0D0D0D;fontColor=#0D0D0D;" parent="1" vertex="1">
          <mxGeometry x="268" y="185" width="37.88" height="40.25" as="geometry" />
        </mxCell>
        <mxCell id="ag_mGLsWCz3XFreDvWMs-16" value="" style="verticalLabelPosition=bottom;html=1;verticalAlign=top;align=center;shape=mxgraph.floorplan.doorRight;aspect=fixed;rotation=-90;strokeColor=#0D0D0D;fontColor=#0D0D0D;" parent="1" vertex="1">
          <mxGeometry x="268" y="349.75" width="37.88" height="40.25" as="geometry" />
        </mxCell>
        <mxCell id="ag_mGLsWCz3XFreDvWMs-17" value="" style="verticalLabelPosition=bottom;html=1;verticalAlign=top;align=center;shape=mxgraph.floorplan.doorRight;aspect=fixed;rotation=-90;strokeColor=#0D0D0D;fontColor=#0D0D0D;" parent="1" vertex="1">
          <mxGeometry x="268" y="510.75" width="37.88" height="40.25" as="geometry" />
        </mxCell>
        <mxCell id="ag_mGLsWCz3XFreDvWMs-18" value="" style="verticalLabelPosition=bottom;html=1;verticalAlign=top;align=center;shape=mxgraph.floorplan.wall;fillColor=strokeColor;direction=south;strokeColor=#0D0D0D;fontColor=#0D0D0D;" parent="1" vertex="1">
          <mxGeometry x="262.18" y="550" width="10" height="95" as="geometry" />
        </mxCell>
        <mxCell id="ag_mGLsWCz3XFreDvWMs-19" value="" style="verticalLabelPosition=bottom;html=1;verticalAlign=top;align=center;shape=mxgraph.floorplan.wall;fillColor=strokeColor;direction=south;strokeColor=#0D0D0D;fontColor=#0D0D0D;" parent="1" vertex="1">
          <mxGeometry x="262" y="389" width="10" height="123" as="geometry" />
        </mxCell>
        <mxCell id="ag_mGLsWCz3XFreDvWMs-20" value="" style="verticalLabelPosition=bottom;html=1;verticalAlign=top;align=center;shape=mxgraph.floorplan.wall;fillColor=strokeColor;direction=south;strokeColor=#0D0D0D;fontColor=#0D0D0D;" parent="1" vertex="1">
          <mxGeometry x="262" y="224.25" width="10" height="126.75" as="geometry" />
        </mxCell>
        <mxCell id="ag_mGLsWCz3XFreDvWMs-21" value="" style="verticalLabelPosition=bottom;html=1;verticalAlign=top;align=center;shape=mxgraph.floorplan.wall;fillColor=strokeColor;direction=south;strokeColor=#0D0D0D;fontColor=#0D0D0D;" parent="1" vertex="1">
          <mxGeometry x="262.18" y="160" width="10" height="26" as="geometry" />
        </mxCell>
        <mxCell id="ag_mGLsWCz3XFreDvWMs-22" value="" style="verticalLabelPosition=bottom;html=1;verticalAlign=top;align=center;shape=mxgraph.floorplan.doorRight;aspect=fixed;rotation=-180;strokeColor=#0D0D0D;fontColor=#0D0D0D;" parent="1" vertex="1">
          <mxGeometry x="234.3" y="757.75" width="37.88" height="40.25" as="geometry" />
        </mxCell>
        <mxCell id="ag_mGLsWCz3XFreDvWMs-23" value="" style="verticalLabelPosition=bottom;html=1;verticalAlign=top;align=center;shape=mxgraph.floorplan.doorOverhead;strokeColor=#0D0D0D;fontColor=#0D0D0D;fillColor=none;" parent="1" vertex="1">
          <mxGeometry x="343" y="773" width="104" height="30" as="geometry" />
        </mxCell>
        <mxCell id="ag_mGLsWCz3XFreDvWMs-24" value="" style="verticalLabelPosition=bottom;html=1;verticalAlign=top;align=center;shape=mxgraph.floorplan.doorDouble;aspect=fixed;rotation=0;strokeColor=#0D0D0D;fontColor=#0D0D0D;" parent="1" vertex="1">
          <mxGeometry x="320.75" y="-123" width="75.5" height="40.11" as="geometry" />
        </mxCell>
        <mxCell id="ag_mGLsWCz3XFreDvWMs-25" value="" style="verticalLabelPosition=bottom;html=1;verticalAlign=top;align=center;shape=mxgraph.floorplan.window;rotation=90;strokeColor=#0D0D0D;fontColor=#0D0D0D;fillColor=none;" parent="1" vertex="1">
          <mxGeometry x="481" y="-37" width="68" height="10" as="geometry" />
        </mxCell>
        <mxCell id="ag_mGLsWCz3XFreDvWMs-26" value="" style="verticalLabelPosition=bottom;html=1;verticalAlign=top;align=center;shape=mxgraph.floorplan.window;rotation=90;strokeColor=#0D0D0D;fontColor=#0D0D0D;fillColor=default;" parent="1" vertex="1">
          <mxGeometry x="481" y="712" width="68" height="10" as="geometry" />
        </mxCell>
        <mxCell id="ag_mGLsWCz3XFreDvWMs-27" value="6 m" style="shape=dimension;direction=west;align=center;points=[];verticalAlign=bottom;spacingTop=-15;labelBackgroundColor=none;fontSize=16;whiteSpace=wrap;html=1;fontFamily=Times New Roman;labelPosition=center;verticalLabelPosition=top;strokeColor=#0D0D0D;fontColor=#0D0D0D;" parent="1" vertex="1">
          <mxGeometry x="190" y="-155" width="330" height="20" as="geometry" />
        </mxCell>
        <mxCell id="ag_mGLsWCz3XFreDvWMs-39" value="5 m" style="shape=dimension;direction=west;align=center;points=[];verticalAlign=bottom;spacingTop=-15;labelBackgroundColor=none;fontSize=16;whiteSpace=wrap;html=1;fontFamily=Times New Roman;labelPosition=center;verticalLabelPosition=top;rotation=90;strokeColor=#0D0D0D;fontColor=#0D0D0D;" parent="1" vertex="1">
          <mxGeometry x="460" y="390" width="148" height="20" as="geometry" />
        </mxCell>
        <mxCell id="ag_mGLsWCz3XFreDvWMs-41" value="3 m" style="shape=dimension;direction=west;align=center;points=[];verticalAlign=bottom;spacingTop=-15;labelBackgroundColor=none;fontSize=16;whiteSpace=wrap;html=1;fontFamily=Times New Roman;labelPosition=center;verticalLabelPosition=top;rotation=90;strokeColor=#0D0D0D;fontColor=#0D0D0D;" parent="1" vertex="1">
          <mxGeometry x="461.5" y="711" width="153.5" height="20" as="geometry" />
        </mxCell>
        <mxCell id="2" value="4 m" style="shape=dimension;direction=west;align=center;points=[];verticalAlign=bottom;spacingTop=-15;labelBackgroundColor=none;fontSize=16;whiteSpace=wrap;html=1;fontFamily=Times New Roman;labelPosition=center;verticalLabelPosition=top;rotation=90;strokeColor=#0D0D0D;fontColor=#0D0D0D;" parent="1" vertex="1">
          <mxGeometry x="460" y="550" width="148" height="20" as="geometry" />
        </mxCell>
        <mxCell id="3" value="5 m" style="shape=dimension;direction=west;align=center;points=[];verticalAlign=bottom;spacingTop=-15;labelBackgroundColor=none;fontSize=16;whiteSpace=wrap;html=1;fontFamily=Times New Roman;labelPosition=center;verticalLabelPosition=top;rotation=90;strokeColor=#0D0D0D;fontColor=#0D0D0D;" parent="1" vertex="1">
          <mxGeometry x="460" y="229" width="148" height="20" as="geometry" />
        </mxCell>
        <mxCell id="7" value="" style="verticalLabelPosition=bottom;html=1;verticalAlign=top;align=center;shape=mxgraph.floorplan.wallCorner;fillColor=strokeColor;strokeColor=#0D0D0D;fontColor=#0D0D0D;" parent="1" vertex="1">
          <mxGeometry x="190" y="-127" width="130" height="281" as="geometry" />
        </mxCell>
        <mxCell id="10" value="5 m" style="shape=dimension;direction=west;align=center;points=[];verticalAlign=bottom;spacingTop=-15;labelBackgroundColor=none;fontSize=16;whiteSpace=wrap;html=1;fontFamily=Times New Roman;labelPosition=center;verticalLabelPosition=top;strokeColor=#0D0D0D;fontColor=#0D0D0D;" parent="1" vertex="1">
          <mxGeometry x="273" y="130" width="235" height="20" as="geometry" />
        </mxCell>
        <mxCell id="11" value="5 m" style="shape=dimension;direction=west;align=center;points=[];verticalAlign=bottom;spacingTop=-15;labelBackgroundColor=none;fontSize=16;whiteSpace=wrap;html=1;fontFamily=Times New Roman;labelPosition=center;verticalLabelPosition=top;strokeColor=#0D0D0D;fontColor=#0D0D0D;" parent="1" vertex="1">
          <mxGeometry x="274" y="292" width="234" height="20" as="geometry" />
        </mxCell>
        <mxCell id="12" value="5 m" style="shape=dimension;direction=west;align=center;points=[];verticalAlign=bottom;spacingTop=-15;labelBackgroundColor=none;fontSize=16;whiteSpace=wrap;html=1;fontFamily=Times New Roman;labelPosition=center;verticalLabelPosition=top;strokeColor=#0D0D0D;fontColor=#0D0D0D;" parent="1" vertex="1">
          <mxGeometry x="274" y="453" width="234" height="20" as="geometry" />
        </mxCell>
        <mxCell id="13" value="1 m" style="shape=dimension;direction=west;align=center;points=[];verticalAlign=bottom;spacingTop=-15;labelBackgroundColor=none;fontSize=16;whiteSpace=wrap;html=1;fontFamily=Times New Roman;labelPosition=center;verticalLabelPosition=top;strokeColor=#0D0D0D;fontColor=#0D0D0D;" parent="1" vertex="1">
          <mxGeometry x="203" y="130" width="59" height="20" as="geometry" />
        </mxCell>
        <mxCell id="16" value="5 m" style="shape=dimension;direction=west;align=center;points=[];verticalAlign=bottom;spacingTop=-15;labelBackgroundColor=none;fontSize=16;whiteSpace=wrap;html=1;fontFamily=Times New Roman;labelPosition=center;verticalLabelPosition=top;strokeColor=#0D0D0D;fontColor=#0D0D0D;" parent="1" vertex="1">
          <mxGeometry x="274.18" y="615" width="234" height="20" as="geometry" />
        </mxCell>
        <mxCell id="17" value="" style="verticalLabelPosition=bottom;html=1;verticalAlign=top;align=center;shape=mxgraph.floorplan.wall;fillColor=strokeColor;strokeColor=#0D0D0D;fontColor=#0D0D0D;" parent="1" vertex="1">
          <mxGeometry x="191" y="792" width="43" height="10" as="geometry" />
        </mxCell>
        <mxCell id="18" value="" style="verticalLabelPosition=bottom;html=1;verticalAlign=top;align=center;shape=mxgraph.floorplan.wall;fillColor=strokeColor;strokeColor=#0D0D0D;fontColor=#0D0D0D;" parent="1" vertex="1">
          <mxGeometry x="272" y="793" width="71" height="10" as="geometry" />
        </mxCell>
        <mxCell id="19" value="" style="verticalLabelPosition=bottom;html=1;verticalAlign=top;align=center;shape=mxgraph.floorplan.wall;fillColor=strokeColor;strokeColor=#0D0D0D;fontColor=#0D0D0D;" parent="1" vertex="1">
          <mxGeometry x="448" y="793" width="72" height="10" as="geometry" />
        </mxCell>
        <mxCell id="ag_mGLsWCz3XFreDvWMs-30" value="8&amp;nbsp;m" style="shape=dimension;direction=west;align=center;points=[];verticalAlign=bottom;spacingTop=-15;labelBackgroundColor=none;fontSize=16;whiteSpace=wrap;html=1;fontFamily=Times New Roman;labelPosition=center;verticalLabelPosition=top;rotation=90;strokeColor=#0D0D0D;fontColor=#0D0D0D;textDirection=ltr;flipH=0;flipV=0;" parent="1" vertex="1">
          <mxGeometry x="393" y="3.5" width="282" height="20" as="geometry" />
        </mxCell>
        <mxCell id="0dyJfPdJYL4sd09w_iWQ-27" value="17 m" style="shape=dimension;whiteSpace=wrap;html=1;align=center;points=[];verticalAlign=middle;spacingBottom=3;labelBackgroundColor=none;rotation=90;" vertex="1" parent="1">
          <mxGeometry x="-160.12" y="455.88" width="639" height="45.25" as="geometry" />
        </mxCell>
      </root>
    </mxGraphModel>
  </diagram>
</mxfile>
